<svg width="123" height="26" viewBox="0 0 123 26" fill="none" xmlns="http://www.w3.org/2000/svg">
<path d="M9.75008 5.41666H7.58341C7.00878 5.41666 6.45768 5.64493 6.05135 6.05126C5.64502 6.45759 5.41675 7.00869 5.41675 7.58332V20.5833C5.41675 21.158 5.64502 21.7091 6.05135 22.1154C6.45768 22.5217 7.00878 22.75 7.58341 22.75H18.4167C18.9914 22.75 19.5425 22.5217 19.9488 22.1154C20.3551 21.7091 20.5834 21.158 20.5834 20.5833V7.58332C20.5834 7.00869 20.3551 6.45759 19.9488 6.05126C19.5425 5.64493 18.9914 5.41666 18.4167 5.41666H16.2501" stroke="#090F47" stroke-opacity="0.75" stroke-width="2" stroke-linecap="round" stroke-linejoin="round"/>
<path d="M9.75 5.41667C9.75 4.84203 9.97827 4.29093 10.3846 3.8846C10.7909 3.47827 11.342 3.25 11.9167 3.25H14.0833C14.658 3.25 15.2091 3.47827 15.6154 3.8846C16.0217 4.29093 16.25 4.84203 16.25 5.41667C16.25 5.9913 16.0217 6.5424 15.6154 6.94873C15.2091 7.35506 14.658 7.58333 14.0833 7.58333H11.9167C11.342 7.58333 10.7909 7.35506 10.3846 6.94873C9.97827 6.5424 9.75 5.9913 9.75 5.41667Z" stroke="#090F47" stroke-opacity="0.75" stroke-width="2" stroke-linecap="round" stroke-linejoin="round"/>
<path d="M119.667 2H103.333C102.045 2 101 3.04467 101 4.33333V20.6667C101 21.9553 102.045 23 103.333 23H119.667C120.955 23 122 21.9553 122 20.6667V4.33333C122 3.04467 120.955 2 119.667 2Z" stroke="#090F47" stroke-opacity="0.75" stroke-width="2" stroke-linecap="round" stroke-linejoin="round"/>
<path d="M117.333 12.5H115L112.667 18.3333L110.333 6.66666L108 12.5H105.667" stroke="#090F47" stroke-opacity="0.75" stroke-width="2" stroke-linecap="round" stroke-linejoin="round"/>
</svg>
