<svg width="19" height="19" viewBox="0 0 19 19" fill="none" xmlns="http://www.w3.org/2000/svg">
<path d="M17.2187 16.3792L12.7347 11.8952C13.8123 10.6016 14.3496 8.94236 14.2349 7.26269C14.1203 5.58301 13.3625 4.01219 12.1192 2.87702C10.8758 1.74184 9.24274 1.12971 7.55959 1.16795C5.87644 1.20619 4.27283 1.89187 3.08235 3.08235C1.89187 4.27283 1.20619 5.87644 1.16795 7.55959C1.12971 9.24274 1.74184 10.8758 2.87702 12.1192C4.01219 13.3625 5.58301 14.1203 7.26269 14.2349C8.94236 14.3496 10.6016 13.8123 11.8952 12.7347L16.3792 17.2187L17.2187 16.3792ZM2.37499 7.71874C2.37499 6.66185 2.6884 5.62869 3.27558 4.74991C3.86276 3.87114 4.69734 3.18622 5.67378 2.78176C6.65022 2.37731 7.72467 2.27148 8.76126 2.47767C9.79784 2.68386 10.75 3.1928 11.4973 3.94014C12.2447 4.68748 12.7536 5.63964 12.9598 6.67623C13.166 7.71281 13.0602 8.78726 12.6557 9.76371C12.2513 10.7401 11.5663 11.5747 10.6876 12.1619C9.8088 12.7491 8.77564 13.0625 7.71874 13.0625C6.30197 13.0609 4.94368 12.4974 3.94188 11.4956C2.94007 10.4938 2.37656 9.13551 2.37499 7.71874Z" fill="black"/>
</svg>
